<?xml version="1.0" encoding="utf-8"?>
<!-- Generator: Adobe Illustrator 22.1.0, SVG Export Plug-In . SVG Version: 6.00 Build 0)  -->
<svg version="1.1" id="Ebene_1" xmlns="http://www.w3.org/2000/svg" xmlns:xlink="http://www.w3.org/1999/xlink" x="0px" y="0px"
	 width="400px" height="95px" viewBox="0 0 400 95" style="enable-background:new 0 0 400 95;" xml:space="preserve">
<style type="text/css">
	.st0{fill-rule:evenodd;clip-rule:evenodd;}
	.st1{fill-rule:evenodd;clip-rule:evenodd;fill:#E30613;}
	.st2{fill-rule:evenodd;clip-rule:evenodd;fill:#004F9F;}
	.st3{fill-rule:evenodd;clip-rule:evenodd;fill:#FFFFFF;}
</style>
<g>
	<path class="st0" d="M20,74.9c-2.2-0.1-4.4-0.8-6.3-1.9c-1.9-0.7-3-1.7-3.3-2.1c-0.3-0.7,1.1-3.2,3.9-7.4c3-4.4,6.1-8.5,9.5-12.7
		s5.6-6.3,6.6-6.6c0.7-0.1,2.3,0.1,5.2,0.6c2.8,0.6,4.1,1,4.1,1.5c0,0.4-1.2,1.8-3.6,4.4l-6.1,7.2c-0.8,1.1-1.7,2.2-2.3,3.3
		c-0.7,1-1.5,2.2-2.3,3.4c1.5-1,4.7-3,9.5-6.1c4.8-2.8,10.2-5.5,16.1-8.7c5.5-3,9.6-4.8,11.6-5.5l6.1,1.7c1,0.3,1.9,0.7,2.2,1
		c0.6,0.3,0.8,0.6,0.8,1c0,0.4-1.1,1.8-3.3,4.3l-6.5,7.7c-2.2,2.5-3.6,4.5-4.3,5.6c3-1.9,8-4.8,14.7-8.3c6.6-3.3,12.7-6.6,18.2-9.1
		c5.5-2.8,8.7-4.1,9.4-4.1c1.2-0.1,2.6,0.4,4.4,1.2c1.7,1,2.5,1.8,2.5,2.3c0,0.3-4.7,2.8-14.3,7.9L69.1,67.7
		c-6.2,3.3-10.6,6.1-13.4,8c-2.2-0.6-4.3-1.1-6.3-1.9c-1.9-1-3.2-1.5-3.7-1.8c-0.6-0.6-0.8-0.8-0.8-1.1c0.1-1.2,1.1-3.4,3.3-6.5
		c2.1-3,4.3-5.9,6.5-8.7c-1.8,0.7-5.4,2.6-10.3,5.4c-5,2.6-9.6,5.2-14.2,7.9L20,74.9z"/>
	<path class="st0" d="M109.4,52.3c2.9-1.5,5-2.3,6.1-2.5c0.3,0,2.1,0.4,5.4,1.5c3.6,1.1,5.9,1.8,7.4,2.1c-0.6,0.8-1.2,1.7-1.9,2.3
		c-0.7,0.8-1.2,1.8-1.8,2.6l-2.9,5c-1,1.7-1.8,3.7-2.8,6.3l-1.4,4.1c-1.7,0-2.9-0.1-3.7-0.8c-1-0.4-1.8-1-2.5-1.7
		c-0.7-0.4-1.1-1.1-1-1.5l0.1-0.8l0.1-1v-0.3h-1.2v-4h2.5l5.1-8.5l-4.4,2.6l-3.2,1.8V52.3z M84.1,69.7c0.6-1.5,2.9-3.7,7.3-6.6
		c4.3-3,9-5.9,14.1-8.7c1.4-0.8,2.8-1.5,4-2.1v7.3l-2.8,1.5c-1.2,0.7-2.1,1.2-2.6,1.5c-1,0.7-1.8,1.2-2.3,1.7l5.9-0.4l1.8-0.1v4
		l-3,0.1c-1.2,0.1-2.6,0.1-4.1,0.3c-1.5,0.1-2.9,0.1-4.1,0.3c-1,0-1.8,0.1-2.5,0.1c-1,0.4-2.3,1.1-3.9,2.3l-3.9,3
		c-1.1-0.6-2.1-1.2-2.9-1.8c-0.8-0.8-1.1-1.4-1-2.1V69.7z"/>
	<path class="st0" d="M150.2,71.5l-1.5-0.1c-0.4-0.1-0.7-0.1-1.1,0c-0.3-0.1-0.4,0-0.6,0l-12,1.7c-3.2,0.7-5.4,0.8-6.6,0.8
		c-0.4,0-1,0-1.8-0.1c-0.4,0-1.4-0.7-2.5-1.7c-1.1-1.1-1.8-2.2-2.1-3.2c-0.3-1.1,1.1-3,4.4-5.8c3.2-2.9,6.8-5.8,10.6-8.7
		c4-3,6.1-4.4,6.3-4.4c1.1-0.1,2.6,0,4.4,0.7c1.8,0.6,2.9,1.2,3.4,1.8c0.1,0.3-1.1,1.5-4,3.6l-8.8,6.8c-3,2.5-5.2,4.7-6.8,6.2l6.9-1
		c2.2-0.3,3.7-0.3,4.7-0.3c0.8,0,1.4,0,2.3,0c0.7,0.3,1.7,0.6,2.8,1.4C149.4,69.8,150.1,70.6,150.2,71.5z"/>
	<path class="st0" d="M179.6,71.5l-1.7-0.1c-0.4,0-0.7,0-1,0c-0.1-0.1-0.4,0-0.7,0l-12,1.7c-3.2,0.7-5.4,0.8-6.5,0.8
		c-0.4,0-1.1,0-1.7,0c-0.8-0.1-1.7-0.8-2.8-1.8c-1.1-1-1.8-2.2-1.9-3.2c-0.6-1.1,1.1-3,4.4-5.8c3-2.9,6.6-5.8,10.7-8.7
		c3.9-3,5.8-4.4,6.1-4.4c1.2-0.1,2.6,0,4.4,0.7c1.9,0.7,3,1.2,3.4,1.8c0.1,0.4-1.1,1.5-3.7,3.6l-9,6.8c-3.2,2.5-5.4,4.7-6.8,6.2
		l6.8-1c2.2-0.3,3.7-0.3,4.8-0.3c0.7,0,1.2,0,2.2,0c0.8,0.3,1.7,0.7,2.8,1.4C178.7,69.8,179.3,70.6,179.6,71.5z"/>
	<path class="st0" d="M202.4,50.5c0.8-0.1,3,0.1,6.2,1.1c3.2,0.8,4.7,1.4,4.5,1.8c-2.3,3-4,5.5-5.1,7.2c-0.4,1.1-0.7,1.8-1.1,2.6
		c-0.3,0.7-0.3,1.4-0.4,1.9c0,0.7,0.3,1.5,0.7,2.3c1.8-1.9,4.8-4.3,9-7.3c3.9-3,7.3-5.5,10.3-7.3c2.6-2.1,4.5-3,5.1-3.3l1.1-0.1
		c1.1-0.1,2.3,0.1,3.6,0.7s2.1,1.1,2.2,1.5c0,0.1-2.2,1.8-6.2,4.8l-13.2,9.9c-2.2,1.5-4.1,3-5.8,4.4c-1.4,1.1-2.6,1.9-3.3,2.9
		c-2.5-0.3-4.7-0.7-6.5-1.1c-1.5-0.6-2.8-1.2-3.9-2.1c-0.7-0.8-1.4-1.5-1.7-2.5c-0.1-0.3-0.1-0.8-0.3-1.2c-0.1-0.4-0.1-0.8-0.1-1.2
		l0.3-1.9c0.3-0.8,0.3-1.1,0.3-1.2c0.1,0,0.3-0.4,0.6-0.8l-15,12.3c-1.4-0.4-2.8-1-3.6-1.5c-1-0.6-1.8-1.2-1.9-2.1
		c-0.1-0.3,1.5-2.2,5.5-5.6c4-3.4,7.7-6.6,11.4-9.5C198.7,52.3,201.2,50.6,202.4,50.5z"/>
	<path class="st0" d="M253.7,50.4c1.4,0,3.2,0,5.2-0.1l4.3-0.3c0.6,0,1.5,0,2.9,0.4c1.2,0.1,2.5,0.6,3.3,1.5c1,0.8,1.4,1.8,1.4,2.9
		l-2.3-0.3h-1.1h-1.5c-1.1,0-2.1,0-3,0c-0.8,0-1.9,0.1-3.3,0.3l-5.8,0.7l-6.5,4.7l4.7-0.7c0.7-0.1,1.4-0.1,1.9-0.1
		c0.4,0,1.1-0.1,1.5-0.1c1,0,1.8,0.1,2.2,0.3c2.9,0.8,4.1,2.1,4.1,3.7l-1.5-0.1h-0.7c-1.1,0-2.3,0-3.6,0.1c-1.4,0-3.2,0.4-5.2,0.6
		c-4.1,0.6-6.9,1-8.3,1.4c-1.4,0.1-2.6,1-3.7,1.8l-2.6,2.5l7.9-1.4c1.2-0.3,2.5-0.3,3.4-0.3l1.5,0.1c0.6,0,1.5,0.4,2.8,1.2
		c1.1,0.8,1.8,1.8,1.8,2.5l-1.1-0.3h-1.4c-0.3,0-3,0.4-8.1,1.2c-5.1,1.1-8.1,1.2-9.6,1.2c-2.9-0.1-4.8-1-5.8-1.9
		c-1.1-1-1.7-1.9-1.7-2.5c0-0.4,0.6-1,1.1-1.9c0.7-1,2.5-2.8,5.6-5.2c3-2.5,6.1-4.7,9-6.9l8.5-5.8c0.3,0,0.8,0,1.8,0.4
		C252.6,50.2,253.3,50.4,253.7,50.4z"/>
	<path class="st0" d="M285.2,50.9l0.6,0.3l5.5-0.8c1.5-0.1,2.6-0.1,3.7-0.3c1.5,0.1,2.8,0.3,4.1,0.7c1.2,0.4,2.3,1.1,3.2,2.1
		c1.1,0.8,1.5,1.5,1.5,2.3c-0.1,1.8-2.2,3.7-5.9,5.5c-3.7,1.8-7.9,3-12.7,4.1v-4.7c0.8-0.1,1.7-0.4,2.5-0.7c4.4-1.2,6.6-2.5,6.6-3.7
		c0.1-0.1-0.1-0.4-0.4-0.7c-0.3-0.3-1-0.6-2.1-0.6c-1.1,0.1-2.3,0.3-3.6,0.6c-1.1,0.1-2.1,0.4-3,0.8V50.9L285.2,50.9z M285.2,65.4
		c1.7,0.7,3.2,1.5,4.5,2.3c1.9,1.1,2.8,1.9,2.9,2.5c-0.1,0.8-0.6,1.4-1,2.1c-0.8,0.6-1.9,1.4-3.3,1.9c-0.8-0.7-1.8-1.4-3.2-2.1V65.4
		z M264,74.1c-1.9-0.7-3.3-1.4-4.3-1.8c-1-0.7-1.4-1.2-1.4-2.1c0-0.7,1.7-2.6,4.8-5.8c3.3-3.2,6.9-6.3,10.6-9.4
		c3.9-3.2,5.9-4.7,6.3-4.8l1.4-0.1c0.6,0,1.1,0.1,1.8,0.3l1.9,0.6v5c-0.3,0.1-0.4,0.3-0.7,0.4c-1.1,0.3-2.5,1.2-4.1,2.5
		c-1.8,1.2-3.3,2.3-4.3,3.3c2.8-0.3,5.8-1,9.1-1.9v4.7c-0.3,0-0.7,0.1-1,0.1c0.3,0.1,0.7,0.3,1,0.4v6.8c-1.2-0.8-2.6-1.5-4.4-2.5
		c-3.4-1.8-6.3-3-8.4-3.9c-1.2,0.7-2.5,2.1-4.8,4.1C265.8,71.9,264.6,73.2,264,74.1z"/>
</g>
<g>
	<path class="st1" d="M16.6,73.4c-2.2-0.4-4.4-0.8-6.3-1.9c-1.9-1-3-1.8-3.3-2.5c-0.4-0.4,1-2.8,3.9-7.2c2.9-4.3,6.2-8.7,9.5-12.7
		c3.3-4.1,5.6-6.3,6.6-6.5c0.7-0.1,2.3,0,5.2,0.6c2.8,0.4,4.1,0.8,4.1,1.4c0,0.3-1.2,1.8-3.6,4.5l-6.1,7.2c-0.7,1-1.7,2.1-2.5,3
		c-0.7,1.1-1.5,2.3-2.2,3.7c1.5-1.2,4.5-3.2,9.6-6.1c4.7-2.9,10.1-5.8,15.8-8.8c5.8-2.9,9.6-4.7,11.7-5.5l6.1,1.7
		c1.1,0.3,1.8,0.7,2.3,1.1c0.4,0.1,0.7,0.4,0.7,0.8c-0.1,0.4-1.2,1.9-3.3,4.3l-6.6,7.7c-1.9,2.5-3.6,4.5-4.1,5.8
		c3-2.1,8-4.8,14.7-8.4c6.6-3.6,12.7-6.5,18-9.1c5.6-2.6,8.7-4.1,9.5-4.1c1.2,0,2.6,0.3,4.4,1.4c1.8,0.8,2.6,1.7,2.5,2.2
		c0,0.3-4.7,2.9-14.3,8L65.5,66.2c-6.1,3.2-10.5,5.9-13.2,7.9c-2.3-0.4-4.3-1.2-6.3-1.9c-1.9-0.8-3.2-1.4-3.9-1.9
		c-0.4-0.3-0.7-0.7-0.7-1c0.1-1.4,1.2-3.4,3.2-6.5c2.1-3,4.4-5.9,6.6-8.5c-1.9,0.7-5.4,2.3-10.5,5.1c-4.8,2.8-9.6,5.4-14.2,8.1
		L16.6,73.4z"/>
	<path class="st1" d="M106,50.6c2.8-1.4,4.8-2.2,5.9-2.5c0.3-0.1,2.2,0.4,5.6,1.7c3.3,1.1,5.8,1.8,7.3,2.1c-0.7,0.7-1.2,1.4-1.9,2.3
		c-0.6,0.8-1.2,1.7-1.8,2.5l-3,5c-0.8,1.5-1.8,3.7-2.6,6.3l-1.5,4.3c-1.4,0-2.8-0.4-3.6-0.8c-1-0.4-1.8-1-2.5-1.7
		c-0.7-0.7-1.1-1.2-1.1-1.7l0.3-0.7l0.1-1v-0.3c-0.4,0-0.8,0-1.2,0v-4l2.3-0.3l5.2-8.3l-4.7,2.6L106,58V50.6z M80.5,68
		c0.6-1.5,3-3.6,7.4-6.6c4.3-3,9-5.9,14.1-8.5c1.5-0.8,2.8-1.5,4-2.2V58l-2.8,1.5c-1.2,0.8-2.1,1.2-2.5,1.7
		c-1.1,0.6-1.9,1.2-2.5,1.5l6.1-0.3l1.7-0.1v4c-1.1,0-2.1,0.1-3,0.1c-1.2,0-2.8,0.1-4.3,0.1c-1.5,0.1-2.8,0.1-4,0.3
		c-1,0-1.8,0.1-2.5,0.1c-1.1,0.6-2.3,1.1-3.7,2.2l-4,3.3c-1.2-0.7-2.2-1.2-2.9-2.1c-0.8-0.6-1.1-1.4-1.1-1.9V68z"/>
	<path class="st1" d="M146.9,69.9l-1.8-0.3c-0.3,0-0.6,0-0.8,0s-0.4,0-0.7,0l-12.1,1.8c-3.2,0.6-5.2,0.8-6.5,0.8
		c-0.6,0-1.1,0-1.7-0.1c-0.7-0.3-1.7-0.8-2.8-1.8c-1-1.1-1.8-2.2-1.9-3.2c-0.3-1,1.1-3,4.3-5.8c3.3-2.9,6.9-5.8,10.7-8.7
		c3.9-2.9,6.1-4.4,6.3-4.4c1.1-0.1,2.5,0.1,4.4,0.8c1.7,0.4,2.9,1.1,3.3,1.8c0.1,0.3-1.1,1.4-3.7,3.4l-9,6.9c-3,2.5-5.4,4.4-6.8,6.1
		l6.9-1c2.1-0.1,3.7-0.4,4.8-0.4c0.6,0,1.2,0.3,2.1,0.3c0.8,0.1,1.8,0.6,2.8,1.4C145.9,68.1,146.6,69,146.9,69.9z"/>
	<path class="st1" d="M176.1,69.9l-1.7-0.3c-0.4,0-0.7,0-1,0c-0.3,0-0.4,0-0.7,0L161,71.5c-3.3,0.6-5.5,0.8-6.8,0.8
		c-0.4,0-1,0-1.7-0.1c-0.6-0.3-1.7-0.8-2.6-1.9c-1-1-1.8-2.1-2.1-3c-0.3-1,1.2-3,4.3-5.8c3.3-2.9,6.9-5.8,10.7-8.7
		c4.1-2.9,6.1-4.4,6.3-4.4c1.1-0.1,2.6,0.1,4.4,0.8c1.9,0.4,3,1.1,3.4,1.8c0.1,0.3-1.1,1.4-3.9,3.4l-8.8,6.9
		c-3.2,2.5-5.4,4.4-6.8,6.1l6.9-1c2.1-0.1,3.7-0.3,4.7-0.4c0.7,0,1.2,0.1,2.2,0.3c0.7,0.1,1.8,0.6,2.8,1.4
		C175.1,68.1,175.8,69,176.1,69.9z"/>
	<path class="st1" d="M199,48.9c0.8-0.3,2.9,0.3,6.2,1c3.2,1,4.8,1.5,4.5,1.9c-2.3,3-4,5.4-5,7.3c-0.6,1-0.8,1.7-1.2,2.5
		c-0.3,0.8-0.4,1.4-0.4,2.1c-0.1,0.7,0.1,1.5,0.7,2.1c1.8-1.7,4.8-4,9-7.2c3.9-3,7.3-5.4,10.2-7.3c2.8-2.1,4.5-3,5.1-3.3l1.2-0.3
		c1,0,2.2,0.3,3.6,0.8c1.2,0.7,1.9,1.1,2.2,1.4c0,0.3-2.2,2.1-6.3,5.1l-13.2,9.8c-2.1,1.7-4,3-5.5,4.3c-1.7,1.2-2.8,2.2-3.4,2.9
		c-2.5-0.1-4.8-0.6-6.5-1c-1.5-0.6-2.9-1.1-3.9-1.9c-0.7-1-1.4-1.7-1.8-2.6c-0.1-0.4-0.1-0.8-0.3-1.2c0-0.4,0-0.7,0-1.2l0.3-2.1
		c0.1-0.6,0.3-1,0.4-1.1c0-0.1,0.1-0.3,0.4-1l-14.9,12.5c-1.7-0.6-2.9-1-3.9-1.7c-0.8-0.6-1.7-1.2-1.9-1.8c-0.1-0.6,1.8-2.5,5.6-5.9
		c3.9-3.4,7.7-6.6,11.3-9.5C195.3,50.5,197.7,49.1,199,48.9z"/>
	<path class="st1" d="M250.2,48.7c1.4,0,3.2-0.1,5.2-0.1l4.3-0.3c0.6,0,1.5,0.1,2.8,0.3c1.4,0.3,2.5,0.8,3.6,1.7
		c0.8,1,1.2,1.7,1.2,2.9L265,53l-1.2-0.1h-1.4c-1.1,0-2.2,0-3.2,0.1c-0.8,0-1.9,0-3,0.1l-5.9,0.8l-6.6,4.5l4.8-0.7
		c0.8,0,1.4,0,1.9,0c0.6-0.1,1.1-0.1,1.7-0.1c0.8,0,1.5,0.1,2.1,0.1c2.8,0.7,4.1,2.1,4,3.7l-1.4-0.1h-0.8c-1.1,0-2.2,0.1-3.6,0.1
		c-1.2,0.1-3,0.3-5.1,0.6c-4.1,0.6-6.9,1-8.3,1.2c-1.4,0.4-2.8,1.1-3.7,1.9l-2.6,2.5l7.9-1.2c1.2-0.3,2.3-0.3,3.3-0.3h1.5
		c0.8,0.1,1.7,0.4,2.9,1.4c1.2,0.7,1.8,1.5,1.8,2.3l-1.1-0.3h-1.4c-0.3,0-3,0.6-8.3,1.4c-5,0.8-8.1,1.2-9.4,1.2
		c-3-0.4-5.1-1-5.9-2.1c-1.1-1-1.7-1.9-1.5-2.5c0-0.3,0.3-1,1-1.9c0.6-0.8,2.3-2.8,5.6-5.2c3-2.5,6.1-4.8,9-6.9l8.4-5.8
		c0.4,0,1,0,1.8,0.4C249,48.6,249.7,48.7,250.2,48.7z"/>
	<path class="st1" d="M281.8,49.3l0.4,0.1l5.6-0.7c1.5-0.1,2.6-0.1,3.6-0.3c1.5,0.1,2.9,0.3,4.3,0.7c1.2,0.4,2.3,1.1,3.2,2.1
		c1,0.7,1.4,1.7,1.4,2.3c0,1.8-2.1,3.6-5.9,5.5c-3.6,1.7-7.7,3.2-12.5,4v-4.5c0.8-0.1,1.7-0.4,2.5-0.7c4.4-1.4,6.6-2.5,6.6-3.6
		c0-0.3-0.1-0.6-0.4-0.8s-1-0.4-2.2-0.4c-1,0-2.2,0.1-3.6,0.4c-1,0.1-1.9,0.4-2.9,0.8V49.3L281.8,49.3z M281.8,63.7
		c1.7,0.7,3,1.5,4.5,2.5c1.8,1,2.6,1.8,2.8,2.3c0,0.7-0.4,1.4-1,2.1c-0.6,0.6-1.7,1.2-3.2,2.1c-0.8-0.7-1.9-1.4-3.2-2.1V63.7z
		 M260.7,72.6c-2.1-0.8-3.6-1.5-4.4-1.9c-1-0.7-1.5-1.2-1.4-1.8c0-1,1.7-2.9,4.8-6.1c3.3-3.2,6.9-6.3,10.6-9.4
		c3.7-3,5.8-4.8,6.3-4.8h1.4c0.6,0,1.1,0,1.8,0.1l1.9,0.6v5c-0.3,0.1-0.6,0.1-0.8,0.3c-1,0.6-2.5,1.4-4.1,2.6
		c-1.8,1.2-3,2.3-4.1,3.4c2.8-0.4,5.6-1.1,9.1-2.1V63c-0.4,0.1-0.7,0.1-1.1,0.3c0.4,0.1,0.7,0.3,1.1,0.4v6.9
		c-1.2-0.8-2.8-1.7-4.4-2.6c-3.6-1.7-6.3-3-8.4-3.9c-1,0.8-2.6,2.2-4.7,4.1C262.3,70.2,261.1,71.6,260.7,72.6z"/>
</g>
<path class="st2" d="M327.1,8.9h57.1c5,0,8.9,4.1,8.9,9V75c0,5-4,9-8.9,9h-57.1c-5,0-9-4.1-9-9V17.9C318.1,12.9,322.1,8.9,327.1,8.9
	z"/>
<polygon class="st3" points="338.7,73 338.7,20 352.6,20 352.6,61.1 377.3,61.1 377.3,73 "/>
<g>
	<polygon class="st0" points="171.3,33 171.3,19 181.1,19 181.1,21.4 174.3,21.4 174.3,24.8 180.2,24.8 180.2,27.1 174.3,27.1 
		174.3,33 	"/>
	<path class="st0" d="M187.1,19h1.7L194,33h-3.2l-1.1-3.2h-2.6v-2.3h1.8l-1.8-5.1V19z M180.4,33l5.2-14.1h1.5v3.4l0,0l-1.8,5.1h1.8
		v2.3h-2.6l-1.1,3.2H180.4z"/>
	<polygon class="st0" points="195.2,33 195.2,19 198.3,19 198.3,24.3 204.1,24.3 204.1,19 207.1,19 207.1,33 204.1,33 204.1,27 
		198.3,27 198.3,33 	"/>
	<path class="st0" d="M215.6,19h1.8c2.3,0,4,1.7,4,3.9c0,1.5-0.7,2.8-2.2,3.4c1.5,0.4,1.9,1.9,2.1,3.4c0,0.8,0,2.5,0.6,3.3h-3.2
		c-0.3-1-0.3-2.3-0.4-3.4c-0.3-1.5-0.8-2.1-2.3-2.1h-0.3v-2.3h0.6c1.5,0,2.2-0.6,2.2-1.9c0-1.4-0.7-1.9-2.2-1.9h-0.6V19z M209.8,33
		V19h5.8v2.3h-2.8v3.9h2.8v2.3h-2.8V33H209.8z"/>
	<path class="st0" d="M222.9,28.3h3c0,1.8,1.5,2.5,3.2,2.5c1.1,0,2.6-0.3,2.6-1.7c0-1.5-2.1-1.8-4-2.5c-2.2-0.4-4.3-1.2-4.3-3.9
		c0-2.8,2.8-4.3,5.2-4.3c3,0,5.6,1.2,5.6,4.5h-3c0-1.7-1.2-2.1-2.8-2.1c-1,0-2.1,0.4-2.1,1.7c0,1,0.7,1.2,4.1,1.9
		c1.1,0.3,4.1,1,4.1,4.1c0,2.6-1.9,4.4-5.8,4.4C225.8,33.2,222.9,31.8,222.9,28.3z"/>
	<path class="st0" d="M249,23.6h-2.9c-0.4-1.5-1.7-2.5-3.2-2.5c-2.8,0-3.9,2.3-3.9,4.8c0,2.3,1.1,4.7,3.9,4.7c1.9,0,3-1.4,3.3-3.2
		h2.9c-0.3,3.6-2.8,5.6-6.2,5.6c-4.3,0-6.9-3.2-6.9-7.2c0-4.1,2.6-7.4,6.9-7.4C246.1,18.6,248.6,20.3,249,23.6z"/>
	<polygon class="st0" points="251.2,33 251.2,19 254.2,19 254.2,24.3 259.9,24.3 259.9,19 263,19 263,33 259.9,33 259.9,27 
		254.2,27 254.2,33 	"/>
	<path class="st0" d="M277.6,19v8.7c0,3.7-2.3,5.5-5.9,5.5c-3.9,0-6.1-1.7-6.1-5.5V19h3.2v8.7c0,1.5,0.3,3,2.9,3c2.1,0,2.9-1,2.9-3
		V19H277.6z"/>
	<polygon class="st0" points="280.2,33 280.2,19 283.4,19 283.4,30.4 290,30.4 290,33 	"/>
	<polygon class="st0" points="291.7,33 291.7,19 302.1,19 302.1,21.4 294.8,21.4 294.8,24.5 301.6,24.5 301.6,27 294.8,27 
		294.8,30.4 302.4,30.4 302.4,33 	"/>
</g>
</svg>
